<mxfile host="app.diagrams.net" modified="2024-05-15T21:40:30.503Z" agent="Mozilla/5.0 (Windows NT 10.0; Win64; x64) AppleWebKit/537.36 (KHTML, like Gecko) Chrome/124.0.0.0 Safari/537.36" version="24.4.2" etag="3m-ySO0JkXK2EZcdgbjh" type="github">
  <diagram name="Page-1" id="8nV0bKJIyVvVnHHy8KCg">
    <mxGraphModel>
      <root>
        <mxCell id="0" />
        <mxCell id="1" parent="0" />
      </root>
    </mxGraphModel>
  </diagram>
</mxfile>
